<svg width="495" height="285" viewBox="0 0 495 285" fill="none" xmlns="http://www.w3.org/2000/svg">
  <rect x="0.5" y="0.5" rx="4.5" width="494" height="284" fill="#ffffff" stroke="#d0d7de"/>
  <text x="25" y="35" fill="#24292f" font-family="'Segoe UI', Ubuntu, 'Helvetica Neue', sans-serif" font-weight="600" font-size="18">Top Languages (by code volume)</text>
  <!-- Progress bar background -->
  <rect x="25" y="50" rx="3" width="445" height="10" fill="#eaeef2"/>
  <rect x="25" y="50" rx="3" width="263" height="10" fill="#dea584"/>
  <rect x="288" y="50" width="80" height="10" fill="#e34c26"/>
  <rect x="368" y="50" width="24" height="10" fill="#3572A5"/>
  <rect x="392" y="50" width="21" height="10" fill="#89e051"/>
  <rect x="413" y="50" width="17" height="10" fill="#3178c6"/>
  <rect x="430" y="50" width="14" height="10" fill="#555555"/>
  <rect x="444" y="50" width="13" height="10" fill="#00ADD8"/>
  <rect x="457" y="50" width="2" height="10" fill="#f1e05a"/>
  <rect x="459" y="50" width="2" height="10" fill="#f34b7d"/>
  <rect x="461" y="50" rx="3" width="2" height="10" fill="#DA5B0B"/>
  <g transform="translate(25, 82)">
    <circle cx="6" cy="6" r="6" fill="#dea584"/>
    <text x="18" y="10" fill="#24292f" font-family="'Segoe UI', Ubuntu, sans-serif" font-size="13">Rust</text>
    <text x="54" y="10" fill="#57606a" font-family="'Segoe UI', Ubuntu, sans-serif" font-size="13">59.2%</text>
  </g>
  <g transform="translate(25, 107)">
    <circle cx="6" cy="6" r="6" fill="#e34c26"/>
    <text x="18" y="10" fill="#24292f" font-family="'Segoe UI', Ubuntu, sans-serif" font-size="13">HTML</text>
    <text x="54" y="10" fill="#57606a" font-family="'Segoe UI', Ubuntu, sans-serif" font-size="13">18.0%</text>
  </g>
  <g transform="translate(25, 132)">
    <circle cx="6" cy="6" r="6" fill="#3572A5"/>
    <text x="18" y="10" fill="#24292f" font-family="'Segoe UI', Ubuntu, sans-serif" font-size="13">Python</text>
    <text x="70" y="10" fill="#57606a" font-family="'Segoe UI', Ubuntu, sans-serif" font-size="13">5.4%</text>
  </g>
  <g transform="translate(25, 157)">
    <circle cx="6" cy="6" r="6" fill="#89e051"/>
    <text x="18" y="10" fill="#24292f" font-family="'Segoe UI', Ubuntu, sans-serif" font-size="13">Shell</text>
    <text x="62" y="10" fill="#57606a" font-family="'Segoe UI', Ubuntu, sans-serif" font-size="13">4.9%</text>
  </g>
  <g transform="translate(25, 182)">
    <circle cx="6" cy="6" r="6" fill="#3178c6"/>
    <text x="18" y="10" fill="#24292f" font-family="'Segoe UI', Ubuntu, sans-serif" font-size="13">TypeScript</text>
    <text x="102" y="10" fill="#57606a" font-family="'Segoe UI', Ubuntu, sans-serif" font-size="13">4.0%</text>
  </g>
  <g transform="translate(260, 82)">
    <circle cx="6" cy="6" r="6" fill="#555555"/>
    <text x="18" y="10" fill="#24292f" font-family="'Segoe UI', Ubuntu, sans-serif" font-size="13">C</text>
    <text x="30" y="10" fill="#57606a" font-family="'Segoe UI', Ubuntu, sans-serif" font-size="13">3.3%</text>
  </g>
  <g transform="translate(260, 107)">
    <circle cx="6" cy="6" r="6" fill="#00ADD8"/>
    <text x="18" y="10" fill="#24292f" font-family="'Segoe UI', Ubuntu, sans-serif" font-size="13">Go</text>
    <text x="38" y="10" fill="#57606a" font-family="'Segoe UI', Ubuntu, sans-serif" font-size="13">3.0%</text>
  </g>
  <g transform="translate(260, 132)">
    <circle cx="6" cy="6" r="6" fill="#f1e05a"/>
    <text x="18" y="10" fill="#24292f" font-family="'Segoe UI', Ubuntu, sans-serif" font-size="13">JavaScript</text>
    <text x="102" y="10" fill="#57606a" font-family="'Segoe UI', Ubuntu, sans-serif" font-size="13">.5%</text>
  </g>
  <g transform="translate(260, 157)">
    <circle cx="6" cy="6" r="6" fill="#f34b7d"/>
    <text x="18" y="10" fill="#24292f" font-family="'Segoe UI', Ubuntu, sans-serif" font-size="13">C++</text>
    <text x="46" y="10" fill="#57606a" font-family="'Segoe UI', Ubuntu, sans-serif" font-size="13">.4%</text>
  </g>
  <g transform="translate(260, 182)">
    <circle cx="6" cy="6" r="6" fill="#DA5B0B"/>
    <text x="18" y="10" fill="#24292f" font-family="'Segoe UI', Ubuntu, sans-serif" font-size="13">Jupyter Notebook</text>
    <text x="150" y="10" fill="#57606a" font-family="'Segoe UI', Ubuntu, sans-serif" font-size="13">.2%</text>
  </g>  <!-- Summary -->
  <line x1="25" y1="210" x2="470" y2="210" stroke="#d0d7de" stroke-width="1"/>
  <text x="25" y="235" fill="#57606a" font-family="'Segoe UI', Ubuntu, sans-serif" font-size="12">1G bytes across 174 repositories</text>
  <text x="25" y="255" fill="#6e7781" font-family="'Segoe UI', Ubuntu, sans-serif" font-size="11">Updated May 2026 · Measured by total code bytes per language</text>
</svg>
