<svg width="495" height="285" viewBox="0 0 495 285" fill="none" xmlns="http://www.w3.org/2000/svg">
  <rect x="0.5" y="0.5" rx="4.5" width="494" height="284" fill="#0d1117" stroke="#30363d"/>
  <text x="25" y="35" fill="#c9d1d9" font-family="'Segoe UI', Ubuntu, 'Helvetica Neue', sans-serif" font-weight="600" font-size="18">Top Languages (by code volume)</text>
  <!-- Progress bar background -->
  <rect x="25" y="50" rx="3" width="445" height="10" fill="#161b22"/>
  <rect x="25" y="50" rx="3" width="196" height="10" fill="#dea584"/>
  <rect x="221" y="50" width="70" height="10" fill="#3572A5"/>
  <rect x="291" y="50" width="69" height="10" fill="#3178c6"/>
  <rect x="360" y="50" width="24" height="10" fill="#e34c26"/>
  <rect x="384" y="50" width="20" height="10" fill="#00ADD8"/>
  <rect x="404" y="50" width="17" height="10" fill="#555555"/>
  <rect x="421" y="50" width="14" height="10" fill="#89e051"/>
  <rect x="435" y="50" width="10" height="10" fill="#f1e05a"/>
  <rect x="445" y="50" width="7" height="10" fill="#701516"/>
  <rect x="452" y="50" rx="3" width="2" height="10" fill="#F05138"/>
  <g transform="translate(25, 82)">
    <circle cx="6" cy="6" r="6" fill="#dea584"/>
    <text x="18" y="10" fill="#c9d1d9" font-family="'Segoe UI', Ubuntu, sans-serif" font-size="13">Rust</text>
    <text x="54" y="10" fill="#8b949e" font-family="'Segoe UI', Ubuntu, sans-serif" font-size="13">44.1%</text>
  </g>
  <g transform="translate(25, 107)">
    <circle cx="6" cy="6" r="6" fill="#3572A5"/>
    <text x="18" y="10" fill="#c9d1d9" font-family="'Segoe UI', Ubuntu, sans-serif" font-size="13">Python</text>
    <text x="70" y="10" fill="#8b949e" font-family="'Segoe UI', Ubuntu, sans-serif" font-size="13">15.9%</text>
  </g>
  <g transform="translate(25, 132)">
    <circle cx="6" cy="6" r="6" fill="#3178c6"/>
    <text x="18" y="10" fill="#c9d1d9" font-family="'Segoe UI', Ubuntu, sans-serif" font-size="13">TypeScript</text>
    <text x="102" y="10" fill="#8b949e" font-family="'Segoe UI', Ubuntu, sans-serif" font-size="13">15.7%</text>
  </g>
  <g transform="translate(25, 157)">
    <circle cx="6" cy="6" r="6" fill="#e34c26"/>
    <text x="18" y="10" fill="#c9d1d9" font-family="'Segoe UI', Ubuntu, sans-serif" font-size="13">HTML</text>
    <text x="54" y="10" fill="#8b949e" font-family="'Segoe UI', Ubuntu, sans-serif" font-size="13">5.6%</text>
  </g>
  <g transform="translate(25, 182)">
    <circle cx="6" cy="6" r="6" fill="#00ADD8"/>
    <text x="18" y="10" fill="#c9d1d9" font-family="'Segoe UI', Ubuntu, sans-serif" font-size="13">Go</text>
    <text x="38" y="10" fill="#8b949e" font-family="'Segoe UI', Ubuntu, sans-serif" font-size="13">4.7%</text>
  </g>
  <g transform="translate(260, 82)">
    <circle cx="6" cy="6" r="6" fill="#555555"/>
    <text x="18" y="10" fill="#c9d1d9" font-family="'Segoe UI', Ubuntu, sans-serif" font-size="13">C</text>
    <text x="30" y="10" fill="#8b949e" font-family="'Segoe UI', Ubuntu, sans-serif" font-size="13">3.9%</text>
  </g>
  <g transform="translate(260, 107)">
    <circle cx="6" cy="6" r="6" fill="#89e051"/>
    <text x="18" y="10" fill="#c9d1d9" font-family="'Segoe UI', Ubuntu, sans-serif" font-size="13">Shell</text>
    <text x="62" y="10" fill="#8b949e" font-family="'Segoe UI', Ubuntu, sans-serif" font-size="13">3.2%</text>
  </g>
  <g transform="translate(260, 132)">
    <circle cx="6" cy="6" r="6" fill="#f1e05a"/>
    <text x="18" y="10" fill="#c9d1d9" font-family="'Segoe UI', Ubuntu, sans-serif" font-size="13">JavaScript</text>
    <text x="102" y="10" fill="#8b949e" font-family="'Segoe UI', Ubuntu, sans-serif" font-size="13">2.3%</text>
  </g>
  <g transform="translate(260, 157)">
    <circle cx="6" cy="6" r="6" fill="#701516"/>
    <text x="18" y="10" fill="#c9d1d9" font-family="'Segoe UI', Ubuntu, sans-serif" font-size="13">Ruby</text>
    <text x="54" y="10" fill="#8b949e" font-family="'Segoe UI', Ubuntu, sans-serif" font-size="13">1.6%</text>
  </g>
  <g transform="translate(260, 182)">
    <circle cx="6" cy="6" r="6" fill="#F05138"/>
    <text x="18" y="10" fill="#c9d1d9" font-family="'Segoe UI', Ubuntu, sans-serif" font-size="13">Swift</text>
    <text x="62" y="10" fill="#8b949e" font-family="'Segoe UI', Ubuntu, sans-serif" font-size="13">.6%</text>
  </g>  <!-- Summary -->
  <line x1="25" y1="210" x2="470" y2="210" stroke="#21262d" stroke-width="1"/>
  <text x="25" y="235" fill="#8b949e" font-family="'Segoe UI', Ubuntu, sans-serif" font-size="12">1G bytes across 239 repositories</text>
  <text x="25" y="255" fill="#484f58" font-family="'Segoe UI', Ubuntu, sans-serif" font-size="11">Updated Mar 2026 · Measured by total code bytes per language</text>
</svg>
