<svg width="1440" height="660" viewBox="0 0 1440 660" fill="none" xmlns="http://www.w3.org/2000/svg" role="img" aria-label="Star history for 14 leading repositories">
  <defs>
    <linearGradient id="card" x1="0" y1="0" x2="0" y2="1"><stop offset="0%" stop-color="#f6f8fa"/><stop offset="100%" stop-color="#ffffff"/></linearGradient>
  </defs>
  <rect x="0.5" y="0.5" rx="12" width="1439" height="659" fill="url(#card)" stroke="#d0d7de"/>
  <text x="78" y="46" fill="#1f2328" font-family="-apple-system, BlinkMacSystemFont, 'Segoe UI', 'Noto Sans', Helvetica, Arial, sans-serif" font-weight="600" font-size="21">Star History</text>
  <text x="78" y="69" fill="#59636e" font-family="-apple-system, BlinkMacSystemFont, 'Segoe UI', 'Noto Sans', Helvetica, Arial, sans-serif" font-size="13">Top 14 by stars and 90-day growth &#183; 22,962 stars, 6,881 in the last 90 days</text>
  <line x1="78" y1="598.0" x2="1074" y2="598.0" stroke="#d0d7de" stroke-width="1"/>
  <text x="66" y="602.0" fill="#59636e" font-family="-apple-system, BlinkMacSystemFont, 'Segoe UI', 'Noto Sans', Helvetica, Arial, sans-serif" font-size="12" text-anchor="end">0</text>
  <line x1="78" y1="471.5" x2="1074" y2="471.5" stroke="#eaeef2" stroke-width="1" stroke-dasharray="3 5"/>
  <text x="66" y="475.5" fill="#59636e" font-family="-apple-system, BlinkMacSystemFont, 'Segoe UI', 'Noto Sans', Helvetica, Arial, sans-serif" font-size="12" text-anchor="end">2k</text>
  <line x1="78" y1="345.0" x2="1074" y2="345.0" stroke="#eaeef2" stroke-width="1" stroke-dasharray="3 5"/>
  <text x="66" y="349.0" fill="#59636e" font-family="-apple-system, BlinkMacSystemFont, 'Segoe UI', 'Noto Sans', Helvetica, Arial, sans-serif" font-size="12" text-anchor="end">4k</text>
  <line x1="78" y1="218.5" x2="1074" y2="218.5" stroke="#eaeef2" stroke-width="1" stroke-dasharray="3 5"/>
  <text x="66" y="222.5" fill="#59636e" font-family="-apple-system, BlinkMacSystemFont, 'Segoe UI', 'Noto Sans', Helvetica, Arial, sans-serif" font-size="12" text-anchor="end">6k</text>
  <line x1="78" y1="92.0" x2="1074" y2="92.0" stroke="#eaeef2" stroke-width="1" stroke-dasharray="3 5"/>
  <text x="66" y="96.0" fill="#59636e" font-family="-apple-system, BlinkMacSystemFont, 'Segoe UI', 'Noto Sans', Helvetica, Arial, sans-serif" font-size="12" text-anchor="end">8k</text>
  <text x="78.0" y="622" fill="#59636e" font-family="-apple-system, BlinkMacSystemFont, 'Segoe UI', 'Noto Sans', Helvetica, Arial, sans-serif" font-size="12" text-anchor="start">Jul 2023</text>
  <line x1="212.6" y1="92" x2="212.6" y2="598" stroke="#eaeef2" stroke-width="1" stroke-dasharray="3 5"/>
  <text x="212.6" y="622" fill="#59636e" font-family="-apple-system, BlinkMacSystemFont, 'Segoe UI', 'Noto Sans', Helvetica, Arial, sans-serif" font-size="12" text-anchor="middle">2024</text>
  <line x1="527.9" y1="92" x2="527.9" y2="598" stroke="#eaeef2" stroke-width="1" stroke-dasharray="3 5"/>
  <text x="527.9" y="622" fill="#59636e" font-family="-apple-system, BlinkMacSystemFont, 'Segoe UI', 'Noto Sans', Helvetica, Arial, sans-serif" font-size="12" text-anchor="middle">2025</text>
  <line x1="839.4" y1="92" x2="839.4" y2="598" stroke="#eaeef2" stroke-width="1" stroke-dasharray="3 5"/>
  <text x="839.4" y="622" fill="#59636e" font-family="-apple-system, BlinkMacSystemFont, 'Segoe UI', 'Noto Sans', Helvetica, Arial, sans-serif" font-size="12" text-anchor="middle">2026</text>
  <text x="1074.0" y="622" fill="#59636e" font-family="-apple-system, BlinkMacSystemFont, 'Segoe UI', 'Noto Sans', Helvetica, Arial, sans-serif" font-size="12" text-anchor="end">Oct 2026</text>
  <polyline points="985.6,598.0 989.4,597.1 993.2,595.2 997.1,594.2 1000.9,584.5 1004.8,583.3 1008.6,582.2 1012.5,581.2 1016.3,580.7 1020.2,580.5 1024.0,580.4 1027.9,580.1 1031.7,579.7 1035.5,579.0 1039.4,578.8 1043.2,578.4 1047.1,578.2 1050.9,578.1 1054.8,577.9 1058.6,577.6 1062.5,577.4 1066.3,577.3 1070.2,577.0 1074.0,577.0" fill="none" stroke="#4056b4" stroke-width="2.25" stroke-linejoin="round" stroke-linecap="round"/>
  <polyline points="816.3,598.0 820.2,597.4 824.0,597.1 827.9,596.5 831.7,595.8 835.6,595.0 839.4,594.6 843.3,594.2 847.1,593.8 851.0,593.4 854.8,592.3 858.6,590.9 862.5,590.7 866.3,590.1 870.2,589.8 874.0,589.2 877.9,589.0 881.7,588.7 885.6,588.3 889.4,588.0 893.3,587.4 897.1,586.9 900.9,586.5 904.8,586.0 908.6,585.1 912.5,584.7 916.3,584.3 920.2,584.1 924.0,583.5 927.9,582.6 931.7,582.1 935.6,581.9 939.4,581.6 943.3,581.2 947.1,580.7 950.9,579.3 954.8,578.4 958.6,578.2 962.5,578.1 966.3,577.0 970.2,576.6 974.0,576.3 977.9,575.9 981.7,575.4 985.6,575.0 989.4,574.7 993.2,574.5 997.1,574.2 1000.9,573.9 1004.8,572.8 1008.6,572.6 1012.5,572.5 1016.3,572.3 1020.2,572.2 1024.0,571.8 1027.9,571.5 1031.7,571.2 1035.5,571.0 1039.4,570.9 1043.2,570.7 1047.1,570.5 1050.9,570.4 1054.8,570.0 1058.6,569.8 1062.5,569.7 1066.3,569.5 1070.2,569.5 1074.0,569.5" fill="none" stroke="#a40e66" stroke-width="2.25" stroke-linejoin="round" stroke-linecap="round"/>
  <polyline points="166.4,598.0 170.3,597.6 174.1,582.4 178.0,581.6 181.8,581.0 185.7,580.7 189.5,580.6 193.4,580.2 197.2,579.9 201.1,579.7 204.9,579.5 208.7,579.2 212.6,579.1 216.4,578.8 220.3,578.8 224.1,578.5 228.0,578.5 231.8,578.3 235.7,578.2 239.5,577.9 243.4,577.8 247.2,577.8 251.1,577.7 254.9,577.6 258.7,577.5 262.6,577.4 266.4,577.3 270.3,577.1 274.1,577.1 278.0,576.9 281.8,576.8 285.7,576.4 289.5,576.3 293.4,576.2 297.2,576.2 301.0,576.1 304.9,575.9 308.7,575.8 312.6,575.7 316.4,575.7 320.3,575.6 324.1,575.4 328.0,575.3 331.8,575.3 335.7,575.2 339.5,575.2 343.3,575.1 347.2,575.0 351.0,575.0 354.9,574.9 358.7,574.6 362.6,574.4 366.4,574.2 370.3,574.0 374.1,573.9 378.0,573.6 381.8,573.5 385.6,573.4 389.5,573.0 393.3,573.0 397.2,572.8 401.0,572.8 404.9,572.2 408.7,572.0 412.6,571.8 416.4,571.7 420.3,571.6 424.1,571.4 427.9,571.3 431.8,571.2 435.6,571.1 439.5,571.1 443.3,571.1 447.2,570.9 451.0,570.7 454.9,570.7 458.7,570.6 462.6,570.0 466.4,569.9 470.2,569.8 474.1,569.7 477.9,569.5 481.8,569.3 485.6,569.0 489.5,569.0 493.3,568.8 497.2,568.8 501.0,568.8 504.9,568.8 508.7,568.8 512.5,568.7 516.4,568.7 520.2,568.6 524.1,568.5 527.9,568.3 531.8,568.3 535.6,568.3 539.5,568.3 543.3,568.1 547.2,567.8 551.0,567.1 554.8,566.8 558.7,566.6 562.5,566.5 566.4,566.4 570.2,566.3 574.1,566.1 577.9,565.9 581.8,565.7 585.6,565.5 589.5,565.4 593.3,565.2 597.2,565.0 601.0,564.7 604.8,564.5 608.7,564.4 612.5,564.4 616.4,564.4 620.2,564.4 624.1,564.3 627.9,564.2 631.8,564.1 635.6,564.0 639.5,564.0 643.3,564.0 647.1,563.9 651.0,563.9 654.8,563.6 658.7,563.5 662.5,563.4 666.4,563.2 670.2,563.1 674.1,563.1 677.9,563.0 681.8,563.0 685.6,563.0 689.4,563.0 693.3,562.8 697.1,562.6 701.0,562.5 704.8,562.2 708.7,562.0 712.5,561.9 716.4,561.9 720.2,561.7 724.1,561.6 727.9,561.5 731.7,561.4 735.6,561.2 739.4,561.1 743.3,561.0 747.1,560.9 751.0,560.8 754.8,560.7 758.7,560.7 762.5,560.7 766.4,560.7 770.2,560.6 774.0,560.4 777.9,560.4 781.7,560.2 785.6,560.1 789.4,560.0 793.3,560.0 797.1,559.9 801.0,559.8 804.8,559.8 808.7,559.7 812.5,559.7 816.3,559.7 820.2,559.4 824.0,559.3 827.9,559.3 831.7,559.3 835.6,559.2 839.4,558.1 843.3,558.0 847.1,557.9 851.0,557.9 854.8,557.8 858.6,557.7 862.5,557.6 866.3,557.6 870.2,557.6 874.0,557.4 877.9,557.3 881.7,557.2 885.6,556.8 889.4,556.7 893.3,556.7 897.1,556.7 900.9,556.7 904.8,556.6 908.6,556.6 912.5,556.4 916.3,556.4 920.2,556.4 924.0,556.3 927.9,556.3 931.7,556.1 935.6,556.1 939.4,556.0 943.3,555.9 947.1,555.9 950.9,555.9 954.8,555.8 958.6,555.7 962.5,555.7 966.3,555.7 970.2,555.7 974.0,555.6 977.9,555.6 981.7,555.4 985.6,555.3 989.4,555.2 993.2,555.2 997.1,555.2 1000.9,555.1 1004.8,555.1 1008.6,554.9 1012.5,554.8 1016.3,554.7 1020.2,554.7 1024.0,554.7 1027.9,554.7 1031.7,554.7 1035.5,554.7 1039.4,554.7 1043.2,554.7 1047.1,554.6 1050.9,554.5 1054.8,554.5 1058.6,554.4 1062.5,554.4 1066.3,554.3 1070.2,554.2 1074.0,554.2" fill="none" stroke="#597a00" stroke-width="2.25" stroke-linejoin="round" stroke-linecap="round"/>
  <polyline points="508.7,598.0 512.5,595.1 516.4,594.4 520.2,594.0 524.1,593.4 527.9,593.0 531.8,592.8 535.6,587.2 539.5,585.2 543.3,584.8 547.2,584.7 551.0,581.7 554.8,581.0 558.7,576.1 562.5,575.6 566.4,571.8 570.2,570.9 574.1,570.7 577.9,569.1 581.8,568.8 585.6,568.1 589.5,567.1 593.3,566.8 597.2,566.7 601.0,566.4 604.8,565.9 608.7,565.7 612.5,565.6 616.4,565.6 620.2,565.4 624.1,565.2 627.9,564.7 631.8,564.7 635.6,564.5 639.5,564.4 643.3,564.4 647.1,564.1 651.0,564.0 654.8,563.8 658.7,563.8 662.5,563.6 666.4,563.5 670.2,563.5 674.1,563.4 677.9,563.3 681.8,563.3 685.6,563.2 689.4,563.1 693.3,562.9 697.1,562.8 701.0,562.8 704.8,562.6 708.7,562.6 712.5,562.5 716.4,562.4 720.2,562.3 724.1,562.3 727.9,562.1 731.7,561.9 735.6,561.5 739.4,561.4 743.3,561.3 747.1,561.3 751.0,561.3 754.8,557.5 758.7,557.4 762.5,557.4 766.4,557.3 770.2,557.1 774.0,557.0 777.9,556.7 781.7,556.6 785.6,556.5 789.4,556.4 793.3,556.2 797.1,556.1 801.0,556.1 804.8,556.1 808.7,556.0 812.5,555.7 816.3,555.6 820.2,555.6 824.0,555.1 827.9,554.9 831.7,554.6 835.6,554.2 839.4,553.8 843.3,553.5 847.1,553.5 851.0,553.3 854.8,553.0 858.6,552.8 862.5,552.8 866.3,552.5 870.2,552.3 874.0,552.1 877.9,552.0 881.7,551.9 885.6,551.6 889.4,551.6 893.3,551.4 897.1,551.3 900.9,551.3 904.8,551.3 908.6,551.3 912.5,551.2 916.3,551.1 920.2,551.0 924.0,551.0 927.9,550.9 931.7,550.9 935.6,550.8 939.4,550.8 943.3,550.8 947.1,550.7 950.9,550.7 954.8,550.7 958.6,550.6 962.5,550.6 966.3,550.6 970.2,550.5 974.0,550.4 977.9,550.4 981.7,550.4 985.6,550.4 989.4,550.3 993.2,550.3 997.1,550.3 1000.9,550.2 1004.8,550.2 1008.6,550.1 1012.5,550.1 1016.3,550.1 1020.2,550.1 1024.0,550.1 1027.9,550.1 1031.7,550.1 1035.5,550.1 1039.4,550.1 1043.2,550.1 1047.1,550.1 1050.9,549.9 1054.8,549.9 1058.6,549.9 1062.5,549.9 1066.3,549.9 1070.2,549.9 1074.0,549.9" fill="none" stroke="#007a99" stroke-width="2.25" stroke-linejoin="round" stroke-linecap="round"/>
  <polyline points="674.1,598.0 677.9,597.8 681.8,595.7 685.6,590.5 689.4,589.6 693.3,588.6 697.1,583.5 701.0,581.0 704.8,576.5 708.7,574.3 712.5,573.1 716.4,572.4 720.2,571.2 724.1,570.1 727.9,568.9 731.7,567.8 735.6,566.9 739.4,566.1 743.3,565.7 747.1,565.3 751.0,565.0 754.8,564.9 758.7,564.7 762.5,564.6 766.4,564.2 770.2,563.8 774.0,563.7 777.9,563.5 781.7,563.5 785.6,563.3 789.4,563.3 793.3,563.1 797.1,563.1 801.0,562.9 804.8,562.8 808.7,562.5 812.5,561.9 816.3,561.8 820.2,561.7 824.0,561.2 827.9,561.0 831.7,560.8 835.6,560.7 839.4,560.2 843.3,559.7 847.1,559.6 851.0,559.4 854.8,558.8 858.6,558.7 862.5,558.5 866.3,558.4 870.2,558.3 874.0,557.9 877.9,557.9 881.7,557.3 885.6,556.6 889.4,556.2 893.3,555.8 897.1,555.4 900.9,554.9 904.8,553.8 908.6,551.4 912.5,550.6 916.3,550.0 920.2,549.7 924.0,549.4 927.9,549.2 931.7,549.0 935.6,548.6 939.4,548.0 943.3,547.7 947.1,547.5 950.9,547.0 954.8,545.8 958.6,545.6 962.5,545.4 966.3,545.3 970.2,545.2 974.0,545.2 977.9,545.2 981.7,544.9 985.6,544.8 989.4,544.8 993.2,544.6 997.1,544.4 1000.9,544.3 1004.8,544.0 1008.6,542.8 1012.5,542.7 1016.3,542.5 1020.2,542.4 1024.0,542.4 1027.9,541.1 1031.7,540.4 1035.5,540.4 1039.4,540.3 1043.2,540.2 1047.1,540.1 1050.9,540.1 1054.8,540.0 1058.6,540.0 1062.5,539.9 1066.3,539.9 1070.2,539.8 1074.0,539.8" fill="none" stroke="#57606a" stroke-width="2.25" stroke-linejoin="round" stroke-linecap="round"/>
  <polyline points="85.7,598.0 89.5,596.5 93.4,595.2 97.2,570.7 101.1,569.6 104.9,568.7 108.8,567.8 112.6,566.8 116.5,566.1 120.3,565.9 124.1,565.7 128.0,565.0 131.8,564.7 135.7,562.3 139.5,561.6 143.4,560.9 147.2,560.2 151.1,559.4 154.9,558.8 158.8,558.8 162.6,557.9 166.4,557.3 170.3,557.1 174.1,556.5 178.0,556.0 181.8,555.7 185.7,552.3 189.5,551.6 193.4,551.3 197.2,551.1 201.1,551.0 204.9,550.8 208.7,550.6 212.6,550.4 216.4,550.2 220.3,549.9 224.1,549.7 228.0,549.6 231.8,549.2 235.7,548.8 239.5,548.3 243.4,548.3 247.2,548.1 251.1,548.0 254.9,547.8 258.7,547.4 262.6,547.0 266.4,546.8 270.3,546.6 274.1,546.4 278.0,545.4 281.8,545.1 285.7,544.8 289.5,544.6 293.4,544.3 297.2,544.2 301.0,544.1 304.9,544.1 308.7,544.0 312.6,544.0 316.4,544.0 320.3,543.9 324.1,543.5 328.0,543.3 331.8,543.0 335.7,543.0 339.5,542.8 343.3,542.7 347.2,542.7 351.0,542.6 354.9,542.5 358.7,542.5 362.6,542.4 366.4,542.3 370.3,542.3 374.1,542.2 378.0,542.1 381.8,542.1 385.6,542.0 389.5,542.0 393.3,541.8 397.2,541.6 401.0,541.4 404.9,541.3 408.7,541.1 412.6,541.0 416.4,540.9 420.3,540.9 424.1,540.8 427.9,540.6 431.8,540.5 435.6,540.4 439.5,540.4 443.3,540.3 447.2,540.2 451.0,540.2 454.9,540.1 458.7,540.0 462.6,539.7 466.4,539.5 470.2,539.5 474.1,539.4 477.9,539.3 481.8,539.2 485.6,539.2 489.5,539.2 493.3,539.2 497.2,539.1 501.0,538.9 504.9,538.9 508.7,538.9 512.5,538.8 516.4,538.8 520.2,538.5 524.1,538.2 527.9,538.0 531.8,538.0 535.6,538.0 539.5,537.8 543.3,537.8 547.2,537.7 551.0,536.0 554.8,535.7 558.7,535.7 562.5,535.6 566.4,535.5 570.2,535.4 574.1,535.4 577.9,535.3 581.8,535.1 585.6,535.0 589.5,534.9 593.3,534.9 597.2,534.8 601.0,534.8 604.8,534.6 608.7,534.5 612.5,534.5 616.4,534.4 620.2,534.4 624.1,534.4 627.9,534.4 631.8,534.4 635.6,534.4 639.5,534.4 643.3,534.4 647.1,534.4 651.0,534.4 654.8,534.4 658.7,534.4 662.5,534.4 666.4,534.4 670.2,534.2 674.1,534.2 677.9,534.2 681.8,534.2 685.6,534.1 689.4,534.1 693.3,534.1 697.1,534.1 701.0,534.0 704.8,534.0 708.7,534.0 712.5,534.0 716.4,533.9 720.2,533.9 724.1,533.9 727.9,533.9 731.7,533.7 735.6,533.5 739.4,533.5 743.3,533.4 747.1,533.4 751.0,533.4 754.8,533.4 758.7,533.4 762.5,533.3 766.4,533.3 770.2,533.3 774.0,533.3 777.9,533.2 781.7,533.2 785.6,533.2 789.4,533.1 793.3,532.9 797.1,532.9 801.0,532.9 804.8,532.9 808.7,532.9 812.5,532.9 816.3,532.9 820.2,532.7 824.0,532.7 827.9,532.7 831.7,532.7 835.6,532.6 839.4,532.6 843.3,532.6 847.1,532.6 851.0,532.3 854.8,532.3 858.6,532.3 862.5,532.3 866.3,532.3 870.2,532.3 874.0,532.2 877.9,532.2 881.7,532.2 885.6,532.2 889.4,532.1 893.3,532.0 897.1,532.0 900.9,531.9 904.8,531.9 908.6,531.8 912.5,531.8 916.3,531.8 920.2,531.8 924.0,531.7 927.9,531.7 931.7,531.7 935.6,531.7 939.4,531.7 943.3,531.7 947.1,531.7 950.9,531.7 954.8,531.7 958.6,531.7 962.5,531.7 966.3,531.7 970.2,531.7 974.0,531.7 977.9,531.7 981.7,531.7 985.6,531.7 989.4,531.6 993.2,531.6 997.1,531.6 1000.9,531.6 1004.8,531.6 1008.6,531.5 1012.5,531.5 1016.3,531.5 1020.2,531.5 1024.0,531.4 1027.9,531.4 1031.7,531.4 1035.5,531.4 1039.4,531.4 1043.2,531.4 1047.1,531.4 1050.9,531.4 1054.8,531.4 1058.6,531.4 1062.5,531.4 1066.3,531.4 1070.2,531.4 1074.0,531.4" fill="none" stroke="#8d5f3d" stroke-width="2.25" stroke-linejoin="round" stroke-linecap="round"/>
  <polyline points="851.0,598.0 854.8,576.7 858.6,574.0 862.5,571.5 866.3,569.6 870.2,567.8 874.0,565.8 877.9,564.6 881.7,562.2 885.6,560.8 889.4,558.2 893.3,555.8 897.1,554.3 900.9,553.2 904.8,551.8 908.6,550.9 912.5,550.2 916.3,548.9 920.2,548.3 924.0,547.3 927.9,547.1 931.7,546.6 935.6,546.1 939.4,545.1 943.3,544.2 947.1,543.3 950.9,542.8 954.8,542.6 958.6,541.9 962.5,541.6 966.3,541.0 970.2,540.2 974.0,539.6 977.9,539.2 981.7,538.9 985.6,538.5 989.4,537.7 993.2,537.5 997.1,537.0 1000.9,536.5 1004.8,536.1 1008.6,535.4 1012.5,534.9 1016.3,534.2 1020.2,533.7 1024.0,532.7 1027.9,532.2 1031.7,532.0 1035.5,531.9 1039.4,531.5 1043.2,530.6 1047.1,530.3 1050.9,529.8 1054.8,529.4 1058.6,528.9 1062.5,528.3 1066.3,528.2 1070.2,527.8 1074.0,527.5" fill="none" stroke="#bf3989" stroke-width="2.25" stroke-linejoin="round" stroke-linecap="round"/>
  <polyline points="801.0,598.0 804.8,597.9 808.7,597.8 812.5,594.3 816.3,591.7 820.2,590.2 824.0,589.4 827.9,587.1 831.7,586.5 835.6,583.6 839.4,581.2 843.3,580.0 847.1,578.8 851.0,578.3 854.8,576.7 858.6,576.0 862.5,572.7 866.3,571.0 870.2,570.1 874.0,569.5 877.9,569.0 881.7,567.5 885.6,565.6 889.4,564.6 893.3,563.5 897.1,562.5 900.9,560.1 904.8,559.6 908.6,558.7 912.5,558.2 916.3,557.6 920.2,557.3 924.0,556.6 927.9,556.1 931.7,555.1 935.6,553.2 939.4,552.6 943.3,551.8 947.1,550.8 950.9,550.6 954.8,549.7 958.6,549.2 962.5,548.2 966.3,545.5 970.2,543.8 974.0,543.0 977.9,542.2 981.7,540.8 985.6,540.3 989.4,539.7 993.2,539.1 997.1,538.6 1000.9,538.0 1004.8,536.9 1008.6,536.1 1012.5,535.4 1016.3,533.5 1020.2,533.1 1024.0,532.2 1027.9,531.5 1031.7,531.0 1035.5,530.3 1039.4,529.9 1043.2,529.1 1047.1,528.3 1050.9,527.7 1054.8,527.1 1058.6,526.5 1062.5,526.2 1066.3,525.7 1070.2,525.2 1074.0,524.7" fill="none" stroke="#8250df" stroke-width="2.25" stroke-linejoin="round" stroke-linecap="round"/>
  <polyline points="824.0,598.0 827.9,597.1 831.7,586.1 835.6,575.2 839.4,570.7 843.3,559.2 847.1,556.8 851.0,554.5 854.8,547.7 858.6,542.3 862.5,540.1 866.3,538.3 870.2,535.7 874.0,533.0 877.9,531.8 881.7,530.1 885.6,526.8 889.4,523.9 893.3,522.0 897.1,520.6 900.9,519.3 904.8,517.9 908.6,516.1 912.5,514.8 916.3,513.6 920.2,512.9 924.0,512.3 927.9,511.7 931.7,510.9 935.6,509.3 939.4,508.7 943.3,507.9 947.1,507.0 950.9,506.1 954.8,505.7 958.6,505.3 962.5,505.0 966.3,504.6 970.2,504.2 974.0,503.9 977.9,503.8 981.7,503.4 985.6,503.2 989.4,502.8 993.2,502.2 997.1,502.0 1000.9,501.4 1004.8,500.9 1008.6,500.5 1012.5,500.2 1016.3,499.6 1020.2,498.9 1024.0,498.4 1027.9,497.9 1031.7,497.5 1035.5,497.0 1039.4,496.3 1043.2,496.0 1047.1,495.3 1050.9,494.9 1054.8,494.8 1058.6,494.5 1062.5,494.0 1066.3,493.6 1070.2,493.2 1074.0,493.0" fill="none" stroke="#9a6700" stroke-width="2.25" stroke-linejoin="round" stroke-linecap="round"/>
  <polyline points="804.8,598.0 808.7,591.1 812.5,585.5 816.3,581.6 820.2,571.6 824.0,566.7 827.9,559.9 831.7,557.9 835.6,554.5 839.4,551.2 843.3,547.7 847.1,543.7 851.0,539.9 854.8,534.7 858.6,531.7 862.5,528.6 866.3,526.1 870.2,523.6 874.0,521.8 877.9,520.6 881.7,519.1 885.6,517.9 889.4,516.4 893.3,515.0 897.1,514.1 900.9,513.1 904.8,512.0 908.6,510.7 912.5,509.7 916.3,509.1 920.2,508.2 924.0,507.3 927.9,506.9 931.7,506.5 935.6,506.0 939.4,505.2 943.3,505.0 947.1,503.9 950.9,503.3 954.8,502.2 958.6,501.7 962.5,501.4 966.3,500.8 970.2,500.1 974.0,499.9 977.9,499.5 981.7,499.3 985.6,498.9 989.4,498.4 993.2,497.9 997.1,497.6 1000.9,497.4 1004.8,497.0 1008.6,496.6 1012.5,496.4 1016.3,496.0 1020.2,495.7 1024.0,495.1 1027.9,494.8 1031.7,494.1 1035.5,493.8 1039.4,493.5 1043.2,493.1 1047.1,492.7 1050.9,492.3 1054.8,492.1 1058.6,491.5 1062.5,491.2 1066.3,490.9 1070.2,490.2 1074.0,490.0" fill="none" stroke="#1a7f37" stroke-width="2.25" stroke-linejoin="round" stroke-linecap="round"/>
  <polyline points="862.5,598.0 866.3,597.4 870.2,596.5 874.0,595.5 877.9,595.0 881.7,577.4 885.6,572.0 889.4,568.9 893.3,566.9 897.1,565.4 900.9,563.2 904.8,561.9 908.6,560.8 912.5,559.7 916.3,557.3 920.2,555.6 924.0,554.4 927.9,553.0 931.7,551.0 935.6,549.5 939.4,547.5 943.3,546.1 947.1,544.7 950.9,540.3 954.8,537.9 958.6,535.4 962.5,532.5 966.3,530.1 970.2,528.4 974.0,527.0 977.9,525.5 981.7,524.0 985.6,522.7 989.4,521.8 993.2,520.1 997.1,518.8 1000.9,517.2 1004.8,515.4 1008.6,513.6 1012.5,511.0 1016.3,508.8 1020.2,505.5 1024.0,502.9 1027.9,500.4 1031.7,498.1 1035.5,496.3 1039.4,494.8 1043.2,493.1 1047.1,491.6 1050.9,490.4 1054.8,489.1 1058.6,488.6 1062.5,487.1 1066.3,485.5 1070.2,482.7 1074.0,481.4" fill="none" stroke="#1b7c83" stroke-width="2.25" stroke-linejoin="round" stroke-linecap="round"/>
  <polyline points="774.0,598.0 777.9,597.9 781.7,590.0 785.6,572.8 789.4,559.3 793.3,555.9 797.1,553.6 801.0,551.9 804.8,551.4 808.7,550.4 812.5,545.1 816.3,543.1 820.2,538.0 824.0,536.6 827.9,533.8 831.7,532.8 835.6,529.2 839.4,519.1 843.3,515.0 847.1,511.0 851.0,507.7 854.8,504.4 858.6,501.9 862.5,500.3 866.3,498.2 870.2,495.7 874.0,494.3 877.9,493.4 881.7,491.8 885.6,490.7 889.4,489.3 893.3,488.3 897.1,487.0 900.9,485.8 904.8,484.5 908.6,483.3 912.5,482.4 916.3,481.6 920.2,481.1 924.0,480.5 927.9,480.3 931.7,479.7 935.6,479.3 939.4,478.7 943.3,478.2 947.1,477.6 950.9,476.6 954.8,475.9 958.6,475.7 962.5,475.3 966.3,475.0 970.2,474.4 974.0,474.0 977.9,473.8 981.7,473.4 985.6,473.0 989.4,472.1 993.2,471.6 997.1,471.1 1000.9,470.9 1004.8,470.4 1008.6,470.0 1012.5,469.6 1016.3,469.0 1020.2,468.1 1024.0,467.5 1027.9,467.1 1031.7,466.4 1035.5,465.5 1039.4,465.0 1043.2,464.8 1047.1,464.2 1050.9,463.8 1054.8,463.3 1058.6,462.8 1062.5,462.5 1066.3,461.3 1070.2,460.6 1074.0,459.9" fill="none" stroke="#cf222e" stroke-width="2.25" stroke-linejoin="round" stroke-linecap="round"/>
  <polyline points="78.0,597.9 81.8,597.9 85.7,594.6 89.5,594.1 93.4,592.3 97.2,591.9 101.1,591.8 104.9,591.7 108.8,591.4 112.6,591.4 116.5,591.3 120.3,591.2 124.1,590.9 128.0,590.7 131.8,590.7 135.7,590.7 139.5,590.6 143.4,590.6 147.2,590.5 151.1,590.3 154.9,590.2 158.8,589.9 162.6,589.8 166.4,589.8 170.3,589.6 174.1,589.5 178.0,589.3 181.8,589.1 185.7,589.1 189.5,589.0 193.4,588.9 197.2,588.7 201.1,588.6 204.9,588.6 208.7,588.4 212.6,588.4 216.4,588.4 220.3,588.2 224.1,588.1 228.0,587.9 231.8,587.9 235.7,587.8 239.5,587.8 243.4,587.8 247.2,587.7 251.1,587.6 254.9,587.4 258.7,587.3 262.6,587.2 266.4,587.1 270.3,587.0 274.1,586.9 278.0,586.9 281.8,586.8 285.7,586.7 289.5,586.7 293.4,586.7 297.2,586.6 301.0,586.5 304.9,586.4 308.7,586.4 312.6,586.2 316.4,586.0 320.3,586.0 324.1,585.6 328.0,585.6 331.8,585.6 335.7,585.6 339.5,585.6 343.3,585.5 347.2,585.3 351.0,585.1 354.9,585.0 358.7,585.0 362.6,584.8 366.4,584.7 370.3,584.7 374.1,584.7 378.0,584.7 381.8,584.7 385.6,584.6 389.5,584.5 393.3,584.4 397.2,584.3 401.0,584.3 404.9,534.6 408.7,525.0 412.6,507.3 416.4,502.2 420.3,499.9 424.1,481.6 427.9,477.6 431.8,475.5 435.6,474.3 439.5,473.1 443.3,471.8 447.2,471.4 451.0,470.7 454.9,470.2 458.7,469.7 462.6,468.5 466.4,467.6 470.2,467.1 474.1,466.3 477.9,465.6 481.8,465.0 485.6,464.2 489.5,463.7 493.3,463.0 497.2,462.4 501.0,462.1 504.9,461.4 508.7,460.8 512.5,460.1 516.4,459.6 520.2,459.0 524.1,458.3 527.9,458.1 531.8,457.5 535.6,457.0 539.5,456.3 543.3,455.7 547.2,455.0 551.0,450.6 554.8,449.5 558.7,448.4 562.5,447.6 566.4,445.9 570.2,445.1 574.1,444.0 577.9,442.6 581.8,441.8 585.6,440.9 589.5,440.1 593.3,439.6 597.2,438.9 601.0,438.4 604.8,437.5 608.7,437.3 612.5,436.6 616.4,436.3 620.2,435.9 624.1,435.6 627.9,435.5 631.8,435.2 635.6,434.8 639.5,434.7 643.3,434.4 647.1,434.0 651.0,433.6 654.8,433.2 658.7,432.9 662.5,432.6 666.4,432.2 670.2,432.0 674.1,432.0 677.9,431.7 681.8,431.4 685.6,431.1 689.4,431.1 693.3,430.8 697.1,430.5 701.0,429.5 704.8,429.1 708.7,429.1 712.5,428.7 716.4,428.5 720.2,428.3 724.1,428.2 727.9,427.8 731.7,427.6 735.6,427.1 739.4,426.9 743.3,426.9 747.1,426.8 751.0,426.6 754.8,426.5 758.7,426.3 762.5,426.2 766.4,426.1 770.2,426.1 774.0,425.9 777.9,425.8 781.7,425.6 785.6,425.5 789.4,425.2 793.3,424.8 797.1,424.8 801.0,424.6 804.8,424.6 808.7,424.4 812.5,424.1 816.3,423.9 820.2,423.7 824.0,423.5 827.9,423.1 831.7,422.9 835.6,422.5 839.4,422.2 843.3,421.8 847.1,421.6 851.0,421.4 854.8,420.5 858.6,420.0 862.5,419.6 866.3,419.3 870.2,419.1 874.0,418.6 877.9,418.6 881.7,418.5 885.6,418.2 889.4,417.6 893.3,417.4 897.1,417.1 900.9,417.0 904.8,416.7 908.6,416.5 912.5,416.3 916.3,416.0 920.2,415.9 924.0,415.7 927.9,415.5 931.7,415.4 935.6,415.1 939.4,414.8 943.3,414.5 947.1,414.5 950.9,414.5 954.8,414.3 958.6,414.3 962.5,414.0 966.3,413.9 970.2,413.7 974.0,413.6 977.9,413.6 981.7,413.6 985.6,413.5 989.4,413.2 993.2,413.1 997.1,413.1 1000.9,412.9 1004.8,412.5 1008.6,412.4 1012.5,412.4 1016.3,412.1 1020.2,411.8 1024.0,409.6 1027.9,409.4 1031.7,409.3 1035.5,409.1 1039.4,409.1 1043.2,409.0 1047.1,408.8 1050.9,408.8 1054.8,408.7 1058.6,408.5 1062.5,408.4 1066.3,408.2 1070.2,408.1 1074.0,408.0" fill="none" stroke="#bc4c00" stroke-width="2.25" stroke-linejoin="round" stroke-linecap="round"/>
  <polyline points="839.4,598.0 843.3,597.7 847.1,596.9 851.0,595.6 854.8,594.0 858.6,588.9 862.5,580.5 866.3,577.3 870.2,576.2 874.0,566.1 877.9,564.9 881.7,563.7 885.6,562.6 889.4,560.7 893.3,558.8 897.1,557.2 900.9,555.6 904.8,554.0 908.6,551.8 912.5,549.4 916.3,548.3 920.2,546.8 924.0,546.1 927.9,545.7 931.7,544.3 935.6,543.7 939.4,538.9 943.3,536.6 947.1,535.8 950.9,535.2 954.8,534.6 958.6,533.0 962.5,532.0 966.3,530.8 970.2,529.9 974.0,529.6 977.9,528.9 981.7,528.4 985.6,527.9 989.4,527.7 993.2,527.2 997.1,526.7 1000.9,465.4 1004.8,290.9 1008.6,274.2 1012.5,261.6 1016.3,256.6 1020.2,251.1 1024.0,242.4 1027.9,238.4 1031.7,235.7 1035.5,233.2 1039.4,231.5 1043.2,228.6 1047.1,226.2 1050.9,223.7 1054.8,222.5 1058.6,220.0 1062.5,217.7 1066.3,215.8 1070.2,214.6 1074.0,213.4" fill="none" stroke="#0969da" stroke-width="2.25" stroke-linejoin="round" stroke-linecap="round"/>
  <circle cx="1074.0" cy="577.0" r="4.5" fill="#ffffff" stroke="#4056b4" stroke-width="2.25"/>
  <circle cx="1074.0" cy="569.5" r="4.5" fill="#ffffff" stroke="#a40e66" stroke-width="2.25"/>
  <circle cx="1074.0" cy="554.2" r="4.5" fill="#ffffff" stroke="#597a00" stroke-width="2.25"/>
  <circle cx="1074.0" cy="549.9" r="4.5" fill="#ffffff" stroke="#007a99" stroke-width="2.25"/>
  <circle cx="1074.0" cy="539.8" r="4.5" fill="#ffffff" stroke="#57606a" stroke-width="2.25"/>
  <circle cx="1074.0" cy="531.4" r="4.5" fill="#ffffff" stroke="#8d5f3d" stroke-width="2.25"/>
  <circle cx="1074.0" cy="527.5" r="4.5" fill="#ffffff" stroke="#bf3989" stroke-width="2.25"/>
  <circle cx="1074.0" cy="524.7" r="4.5" fill="#ffffff" stroke="#8250df" stroke-width="2.25"/>
  <circle cx="1074.0" cy="493.0" r="4.5" fill="#ffffff" stroke="#9a6700" stroke-width="2.25"/>
  <circle cx="1074.0" cy="490.0" r="4.5" fill="#ffffff" stroke="#1a7f37" stroke-width="2.25"/>
  <circle cx="1074.0" cy="481.4" r="4.5" fill="#ffffff" stroke="#1b7c83" stroke-width="2.25"/>
  <circle cx="1074.0" cy="459.9" r="4.5" fill="#ffffff" stroke="#cf222e" stroke-width="2.25"/>
  <circle cx="1074.0" cy="408.0" r="4.5" fill="#ffffff" stroke="#bc4c00" stroke-width="2.25"/>
  <circle cx="1074.0" cy="213.4" r="4.5" fill="#ffffff" stroke="#0969da" stroke-width="2.25"/>
  <rect x="1108" y="97" width="14" height="4" rx="2" fill="#0969da"/>
  <text x="1132" y="102" fill="#1f2328" font-family="-apple-system, BlinkMacSystemFont, 'Segoe UI', 'Noto Sans', Helvetica, Arial, sans-serif" font-size="13">DCG</text>
  <text x="1410" y="102" fill="#59636e" font-family="-apple-system, BlinkMacSystemFont, 'Segoe UI', 'Noto Sans', Helvetica, Arial, sans-serif" font-size="12" text-anchor="end">6,080  <tspan fill="#1a7f37">+4,952</tspan></text>
  <rect x="1108" y="123" width="14" height="4" rx="2" fill="#bc4c00"/>
  <text x="1132" y="128" fill="#1f2328" font-family="-apple-system, BlinkMacSystemFont, 'Segoe UI', 'Noto Sans', Helvetica, Arial, sans-serif" font-size="13">LLM Aided OCR</text>
  <text x="1410" y="128" fill="#59636e" font-family="-apple-system, BlinkMacSystemFont, 'Segoe UI', 'Noto Sans', Helvetica, Arial, sans-serif" font-size="12" text-anchor="end">3,004  <tspan fill="#1a7f37">+80</tspan></text>
  <rect x="1108" y="149" width="14" height="4" rx="2" fill="#cf222e"/>
  <text x="1132" y="154" fill="#1f2328" font-family="-apple-system, BlinkMacSystemFont, 'Segoe UI', 'Noto Sans', Helvetica, Arial, sans-serif" font-size="13">MCP Agent Mail</text>
  <text x="1410" y="154" fill="#59636e" font-family="-apple-system, BlinkMacSystemFont, 'Segoe UI', 'Noto Sans', Helvetica, Arial, sans-serif" font-size="12" text-anchor="end">2,183  <tspan fill="#1a7f37">+177</tspan></text>
  <rect x="1108" y="175" width="14" height="4" rx="2" fill="#1b7c83"/>
  <text x="1132" y="180" fill="#1f2328" font-family="-apple-system, BlinkMacSystemFont, 'Segoe UI', 'Noto Sans', Helvetica, Arial, sans-serif" font-size="13">Pi Agent Rust</text>
  <text x="1410" y="180" fill="#59636e" font-family="-apple-system, BlinkMacSystemFont, 'Segoe UI', 'Noto Sans', Helvetica, Arial, sans-serif" font-size="12" text-anchor="end">1,844  <tspan fill="#1a7f37">+592</tspan></text>
  <rect x="1108" y="201" width="14" height="4" rx="2" fill="#1a7f37"/>
  <text x="1132" y="206" fill="#1f2328" font-family="-apple-system, BlinkMacSystemFont, 'Segoe UI', 'Noto Sans', Helvetica, Arial, sans-serif" font-size="13">Beads Viewer</text>
  <text x="1410" y="206" fill="#59636e" font-family="-apple-system, BlinkMacSystemFont, 'Segoe UI', 'Noto Sans', Helvetica, Arial, sans-serif" font-size="12" text-anchor="end">1,708  <tspan fill="#1a7f37">+121</tspan></text>
  <rect x="1108" y="227" width="14" height="4" rx="2" fill="#9a6700"/>
  <text x="1132" y="232" fill="#1f2328" font-family="-apple-system, BlinkMacSystemFont, 'Segoe UI', 'Noto Sans', Helvetica, Arial, sans-serif" font-size="13">Flywheel Setup</text>
  <text x="1410" y="232" fill="#59636e" font-family="-apple-system, BlinkMacSystemFont, 'Segoe UI', 'Noto Sans', Helvetica, Arial, sans-serif" font-size="12" text-anchor="end">1,660  <tspan fill="#1a7f37">+143</tspan></text>
  <rect x="1108" y="253" width="14" height="4" rx="2" fill="#8250df"/>
  <text x="1132" y="258" fill="#1f2328" font-family="-apple-system, BlinkMacSystemFont, 'Segoe UI', 'Noto Sans', Helvetica, Arial, sans-serif" font-size="13">CASS</text>
  <text x="1410" y="258" fill="#59636e" font-family="-apple-system, BlinkMacSystemFont, 'Segoe UI', 'Noto Sans', Helvetica, Arial, sans-serif" font-size="12" text-anchor="end">1,159  <tspan fill="#1a7f37">+220</tspan></text>
  <rect x="1108" y="279" width="14" height="4" rx="2" fill="#bf3989"/>
  <text x="1132" y="284" fill="#1f2328" font-family="-apple-system, BlinkMacSystemFont, 'Segoe UI', 'Noto Sans', Helvetica, Arial, sans-serif" font-size="13">Beads Rust</text>
  <text x="1410" y="284" fill="#59636e" font-family="-apple-system, BlinkMacSystemFont, 'Segoe UI', 'Noto Sans', Helvetica, Arial, sans-serif" font-size="12" text-anchor="end">1,114  <tspan fill="#1a7f37">+150</tspan></text>
  <rect x="1108" y="305" width="14" height="4" rx="2" fill="#8d5f3d"/>
  <text x="1132" y="310" fill="#1f2328" font-family="-apple-system, BlinkMacSystemFont, 'Segoe UI', 'Noto Sans', Helvetica, Arial, sans-serif" font-size="13">Swiss Army Llama</text>
  <text x="1410" y="310" fill="#59636e" font-family="-apple-system, BlinkMacSystemFont, 'Segoe UI', 'Noto Sans', Helvetica, Arial, sans-serif" font-size="12" text-anchor="end">1,053  <tspan fill="#1a7f37">+3</tspan></text>
  <rect x="1108" y="331" width="14" height="4" rx="2" fill="#57606a"/>
  <text x="1132" y="336" fill="#1f2328" font-family="-apple-system, BlinkMacSystemFont, 'Segoe UI', 'Noto Sans', Helvetica, Arial, sans-serif" font-size="13">Claude Code Agent Farm</text>
  <text x="1410" y="336" fill="#59636e" font-family="-apple-system, BlinkMacSystemFont, 'Segoe UI', 'Noto Sans', Helvetica, Arial, sans-serif" font-size="12" text-anchor="end">920  <tspan fill="#1a7f37">+73</tspan></text>
  <rect x="1108" y="357" width="14" height="4" rx="2" fill="#007a99"/>
  <text x="1132" y="362" fill="#1f2328" font-family="-apple-system, BlinkMacSystemFont, 'Segoe UI', 'Noto Sans', Helvetica, Arial, sans-serif" font-size="13">Your Source to Prompt</text>
  <text x="1410" y="362" fill="#59636e" font-family="-apple-system, BlinkMacSystemFont, 'Segoe UI', 'Noto Sans', Helvetica, Arial, sans-serif" font-size="12" text-anchor="end">761  <tspan fill="#1a7f37">+7</tspan></text>
  <rect x="1108" y="383" width="14" height="4" rx="2" fill="#597a00"/>
  <text x="1132" y="388" fill="#1f2328" font-family="-apple-system, BlinkMacSystemFont, 'Segoe UI', 'Noto Sans', Helvetica, Arial, sans-serif" font-size="13">Bulk YouTube Transcriber</text>
  <text x="1410" y="388" fill="#59636e" font-family="-apple-system, BlinkMacSystemFont, 'Segoe UI', 'Noto Sans', Helvetica, Arial, sans-serif" font-size="12" text-anchor="end">693  <tspan fill="#1a7f37">+16</tspan></text>
  <rect x="1108" y="409" width="14" height="4" rx="2" fill="#a40e66"/>
  <text x="1132" y="414" fill="#1f2328" font-family="-apple-system, BlinkMacSystemFont, 'Segoe UI', 'Noto Sans', Helvetica, Arial, sans-serif" font-size="13">NTM</text>
  <text x="1410" y="414" fill="#59636e" font-family="-apple-system, BlinkMacSystemFont, 'Segoe UI', 'Noto Sans', Helvetica, Arial, sans-serif" font-size="12" text-anchor="end">451  <tspan fill="#1a7f37">+75</tspan></text>
  <rect x="1108" y="435" width="14" height="4" rx="2" fill="#4056b4"/>
  <text x="1132" y="440" fill="#1f2328" font-family="-apple-system, BlinkMacSystemFont, 'Segoe UI', 'Noto Sans', Helvetica, Arial, sans-serif" font-size="13">FrankenOCR</text>
  <text x="1410" y="440" fill="#59636e" font-family="-apple-system, BlinkMacSystemFont, 'Segoe UI', 'Noto Sans', Helvetica, Arial, sans-serif" font-size="12" text-anchor="end">332  <tspan fill="#1a7f37">+272</tspan></text>
  <text x="78" y="642" fill="#818b98" font-family="-apple-system, BlinkMacSystemFont, 'Segoe UI', 'Noto Sans', Helvetica, Arial, sans-serif" font-size="11">Generated from GitHub stargazer timestamps &#183; updated 05 Oct 2026</text>
</svg>
